solid OpenSCAD_Model
  facet normal -1 0 0
    outer loop
      vertex 0 11.2485 0
      vertex 0 15 40
      vertex 0 15 0
    endloop
  endfacet
  facet normal -1 -0 0
    outer loop
      vertex 0 15 40
      vertex 0 11.2485 0
      vertex 0 11.2485 40
    endloop
  endfacet
  facet normal -1 0 0
    outer loop
      vertex 0 0 0
      vertex 0 3.75152 40
      vertex 0 3.75152 0
    endloop
  endfacet
  facet normal -1 -0 0
    outer loop
      vertex 0 3.75152 40
      vertex 0 0 0
      vertex 0 0 40
    endloop
  endfacet
  facet normal 0 0 1
    outer loop
      vertex 10 15 40
      vertex 6.25 7.5 40
      vertex 10 0 40
    endloop
  endfacet
  facet normal 0 0 1
    outer loop
      vertex 10 15 40
      vertex 6.24161 7.76686 40
      vertex 6.25 7.5 40
    endloop
  endfacet
  facet normal 0 0 1
    outer loop
      vertex 10 15 40
      vertex 6.21649 8.03267 40
      vertex 6.24161 7.76686 40
    endloop
  endfacet
  facet normal 0 0 1
    outer loop
      vertex 10 15 40
      vertex 6.17472 8.29637 40
      vertex 6.21649 8.03267 40
    endloop
  endfacet
  facet normal 0 0 1
    outer loop
      vertex 10 15 40
      vertex 6.11648 8.55693 40
      vertex 6.17472 8.29637 40
    endloop
  endfacet
  facet normal 0 0 1
    outer loop
      vertex 10 15 40
      vertex 6.04199 8.81332 40
      vertex 6.11648 8.55693 40
    endloop
  endfacet
  facet normal 0 0 1
    outer loop
      vertex 10 15 40
      vertex 5.95155 9.06453 40
      vertex 6.04199 8.81332 40
    endloop
  endfacet
  facet normal 0 0 1
    outer loop
      vertex 10 15 40
      vertex 5.84551 9.30956 40
      vertex 5.95155 9.06453 40
    endloop
  endfacet
  facet normal 0 0 1
    outer loop
      vertex 10 15 40
      vertex 5.7243 9.54745 40
      vertex 5.84551 9.30956 40
    endloop
  endfacet
  facet normal 0 0 1
    outer loop
      vertex 10 15 40
      vertex 5.58839 9.77726 40
      vertex 5.7243 9.54745 40
    endloop
  endfacet
  facet normal 0 0 1
    outer loop
      vertex 10 15 40
      vertex 5.43832 9.99809 40
      vertex 5.58839 9.77726 40
    endloop
  endfacet
  facet normal 0 0 1
    outer loop
      vertex 10 15 40
      vertex 5.27468 10.2091 40
      vertex 5.43832 9.99809 40
    endloop
  endfacet
  facet normal 0 0 1
    outer loop
      vertex 10 15 40
      vertex 5.09812 10.4093 40
      vertex 5.27468 10.2091 40
    endloop
  endfacet
  facet normal 0 0 1
    outer loop
      vertex 10 15 40
      vertex 4.90932 10.5981 40
      vertex 5.09812 10.4093 40
    endloop
  endfacet
  facet normal 0 0 1
    outer loop
      vertex 10 15 40
      vertex 4.70905 10.7747 40
      vertex 4.90932 10.5981 40
    endloop
  endfacet
  facet normal 0 0 1
    outer loop
      vertex 10 15 40
      vertex 4.49809 10.9383 40
      vertex 4.70905 10.7747 40
    endloop
  endfacet
  facet normal 0 0 1
    outer loop
      vertex 10 15 40
      vertex 4.27726 11.0884 40
      vertex 4.49809 10.9383 40
    endloop
  endfacet
  facet normal 0 0 1
    outer loop
      vertex 10 15 40
      vertex 4.04745 11.2243 40
      vertex 4.27726 11.0884 40
    endloop
  endfacet
  facet normal 0 0 1
    outer loop
      vertex 10 15 40
      vertex 3.80956 11.3455 40
      vertex 4.04745 11.2243 40
    endloop
  endfacet
  facet normal 0 0 1
    outer loop
      vertex 10 15 40
      vertex 3.56453 11.4515 40
      vertex 3.80956 11.3455 40
    endloop
  endfacet
  facet normal 0 0 1
    outer loop
      vertex 10 15 40
      vertex 3.31332 11.542 40
      vertex 3.56453 11.4515 40
    endloop
  endfacet
  facet normal -0 0 1
    outer loop
      vertex 0 15 40
      vertex 3.31332 11.542 40
      vertex 10 15 40
    endloop
  endfacet
  facet normal 0 0 1
    outer loop
      vertex 3.31332 11.542 40
      vertex 0 15 40
      vertex 3.05693 11.6165 40
    endloop
  endfacet
  facet normal 0 0 1
    outer loop
      vertex 3.05693 11.6165 40
      vertex 0 15 40
      vertex 2.79637 11.6747 40
    endloop
  endfacet
  facet normal 0 0 1
    outer loop
      vertex 2.79637 11.6747 40
      vertex 0 15 40
      vertex 2.53267 11.7165 40
    endloop
  endfacet
  facet normal 0 0 1
    outer loop
      vertex 2.53267 11.7165 40
      vertex 0 15 40
      vertex 2.26686 11.7416 40
    endloop
  endfacet
  facet normal 0 0 1
    outer loop
      vertex 2.26686 11.7416 40
      vertex 0 15 40
      vertex 2 11.75 40
    endloop
  endfacet
  facet normal 0 0 1
    outer loop
      vertex 2 11.75 40
      vertex 0 15 40
      vertex 1.73314 11.7416 40
    endloop
  endfacet
  facet normal 0 0 1
    outer loop
      vertex 1.73314 11.7416 40
      vertex 0 15 40
      vertex 1.46733 11.7165 40
    endloop
  endfacet
  facet normal 0 0 1
    outer loop
      vertex 1.46733 11.7165 40
      vertex 0 15 40
      vertex 1.20363 11.6747 40
    endloop
  endfacet
  facet normal 0 0 1
    outer loop
      vertex 1.20363 11.6747 40
      vertex 0 15 40
      vertex 0.943068 11.6165 40
    endloop
  endfacet
  facet normal 0 0 1
    outer loop
      vertex 0.943068 11.6165 40
      vertex 0 15 40
      vertex 0.686677 11.542 40
    endloop
  endfacet
  facet normal 0 0 1
    outer loop
      vertex 0.686677 11.542 40
      vertex 0 15 40
      vertex 0.435471 11.4515 40
    endloop
  endfacet
  facet normal 0 0 1
    outer loop
      vertex 0 15 40
      vertex 0.190437 11.3455 40
      vertex 0.435471 11.4515 40
    endloop
  endfacet
  facet normal 0 0 1
    outer loop
      vertex 0.190437 11.3455 40
      vertex 0 15 40
      vertex 0 11.2485 40
    endloop
  endfacet
  facet normal -0 0 1
    outer loop
      vertex 6.24161 7.23314 40
      vertex 10 0 40
      vertex 6.25 7.5 40
    endloop
  endfacet
  facet normal -0 0 1
    outer loop
      vertex 6.21649 6.96733 40
      vertex 10 0 40
      vertex 6.24161 7.23314 40
    endloop
  endfacet
  facet normal -0 0 1
    outer loop
      vertex 6.17472 6.70363 40
      vertex 10 0 40
      vertex 6.21649 6.96733 40
    endloop
  endfacet
  facet normal -0 0 1
    outer loop
      vertex 6.11648 6.44307 40
      vertex 10 0 40
      vertex 6.17472 6.70363 40
    endloop
  endfacet
  facet normal -0 0 1
    outer loop
      vertex 6.04199 6.18668 40
      vertex 10 0 40
      vertex 6.11648 6.44307 40
    endloop
  endfacet
  facet normal -0 0 1
    outer loop
      vertex 5.95155 5.93547 40
      vertex 10 0 40
      vertex 6.04199 6.18668 40
    endloop
  endfacet
  facet normal -0 0 1
    outer loop
      vertex 5.84551 5.69044 40
      vertex 10 0 40
      vertex 5.95155 5.93547 40
    endloop
  endfacet
  facet normal -0 0 1
    outer loop
      vertex 5.7243 5.45255 40
      vertex 10 0 40
      vertex 5.84551 5.69044 40
    endloop
  endfacet
  facet normal -0 0 1
    outer loop
      vertex 5.58839 5.22274 40
      vertex 10 0 40
      vertex 5.7243 5.45255 40
    endloop
  endfacet
  facet normal -0 0 1
    outer loop
      vertex 5.43832 5.00191 40
      vertex 10 0 40
      vertex 5.58839 5.22274 40
    endloop
  endfacet
  facet normal -0 0 1
    outer loop
      vertex 5.27468 4.79095 40
      vertex 10 0 40
      vertex 5.43832 5.00191 40
    endloop
  endfacet
  facet normal -0 0 1
    outer loop
      vertex 5.09812 4.59067 40
      vertex 10 0 40
      vertex 5.27468 4.79095 40
    endloop
  endfacet
  facet normal -0 0 1
    outer loop
      vertex 4.90932 4.40188 40
      vertex 10 0 40
      vertex 5.09812 4.59067 40
    endloop
  endfacet
  facet normal -0 0 1
    outer loop
      vertex 4.70905 4.22532 40
      vertex 10 0 40
      vertex 4.90932 4.40188 40
    endloop
  endfacet
  facet normal -0 0 1
    outer loop
      vertex 4.49809 4.06168 40
      vertex 10 0 40
      vertex 4.70905 4.22532 40
    endloop
  endfacet
  facet normal -0 0 1
    outer loop
      vertex 4.27726 3.91161 40
      vertex 10 0 40
      vertex 4.49809 4.06168 40
    endloop
  endfacet
  facet normal -0 0 1
    outer loop
      vertex 4.04745 3.7757 40
      vertex 10 0 40
      vertex 4.27726 3.91161 40
    endloop
  endfacet
  facet normal -0 0 1
    outer loop
      vertex 3.80956 3.65448 40
      vertex 10 0 40
      vertex 4.04745 3.7757 40
    endloop
  endfacet
  facet normal -0 0 1
    outer loop
      vertex 3.56453 3.54845 40
      vertex 10 0 40
      vertex 3.80956 3.65448 40
    endloop
  endfacet
  facet normal -0 0 1
    outer loop
      vertex 3.31332 3.45801 40
      vertex 10 0 40
      vertex 3.56453 3.54845 40
    endloop
  endfacet
  facet normal 0 0 1
    outer loop
      vertex 0 0 40
      vertex 3.31332 3.45801 40
      vertex 3.05693 3.38352 40
    endloop
  endfacet
  facet normal 0 0 1
    outer loop
      vertex 0 0 40
      vertex 3.05693 3.38352 40
      vertex 2.79637 3.32528 40
    endloop
  endfacet
  facet normal 0 0 1
    outer loop
      vertex 0 0 40
      vertex 2.79637 3.32528 40
      vertex 2.53267 3.28351 40
    endloop
  endfacet
  facet normal 0 0 1
    outer loop
      vertex 0 0 40
      vertex 2.53267 3.28351 40
      vertex 2.26686 3.25839 40
    endloop
  endfacet
  facet normal 0 0 1
    outer loop
      vertex 0 0 40
      vertex 2.26686 3.25839 40
      vertex 2 3.25 40
    endloop
  endfacet
  facet normal 0 0 1
    outer loop
      vertex 0 0 40
      vertex 2 3.25 40
      vertex 1.73314 3.25839 40
    endloop
  endfacet
  facet normal 0 0 1
    outer loop
      vertex 0 0 40
      vertex 1.73314 3.25839 40
      vertex 1.46733 3.28351 40
    endloop
  endfacet
  facet normal 0 0 1
    outer loop
      vertex 0 0 40
      vertex 1.46733 3.28351 40
      vertex 1.20363 3.32528 40
    endloop
  endfacet
  facet normal 0 0 1
    outer loop
      vertex 0 0 40
      vertex 1.20363 3.32528 40
      vertex 0.943068 3.38352 40
    endloop
  endfacet
  facet normal 0 0 1
    outer loop
      vertex 0 0 40
      vertex 0.943068 3.38352 40
      vertex 0.686677 3.45801 40
    endloop
  endfacet
  facet normal 0 0 1
    outer loop
      vertex 0 0 40
      vertex 0.686677 3.45801 40
      vertex 0.435471 3.54845 40
    endloop
  endfacet
  facet normal 0 0 1
    outer loop
      vertex 3.31332 3.45801 40
      vertex 0 0 40
      vertex 10 0 40
    endloop
  endfacet
  facet normal 0 0 1
    outer loop
      vertex 0.190437 3.65448 40
      vertex 0 0 40
      vertex 0.435471 3.54845 40
    endloop
  endfacet
  facet normal 0 0 1
    outer loop
      vertex 0 0 40
      vertex 0.190437 3.65448 40
      vertex 0 3.75152 40
    endloop
  endfacet
  facet normal 1 -0 0
    outer loop
      vertex 10 0 40
      vertex 10 15 10
      vertex 10 15 40
    endloop
  endfacet
  facet normal 1 0 0
    outer loop
      vertex 10 15 10
      vertex 10 0 40
      vertex 10 0 10
    endloop
  endfacet
  facet normal 0 1 0
    outer loop
      vertex 235 15 10
      vertex 235 15 0
      vertex 10 15 10
    endloop
  endfacet
  facet normal 0 1 -0
    outer loop
      vertex 10 15 10
      vertex 0 15 40
      vertex 10 15 40
    endloop
  endfacet
  facet normal 0 1 0
    outer loop
      vertex 10 15 10
      vertex 0 15 0
      vertex 0 15 40
    endloop
  endfacet
  facet normal 0 1 0
    outer loop
      vertex 0 15 0
      vertex 10 15 10
      vertex 235 15 0
    endloop
  endfacet
  facet normal 0 0 -1
    outer loop
      vertex 235 0 0
      vertex 6.25 7.5 0
      vertex 235 15 0
    endloop
  endfacet
  facet normal 0 0 -1
    outer loop
      vertex 235 0 0
      vertex 6.24161 7.23314 0
      vertex 6.25 7.5 0
    endloop
  endfacet
  facet normal 0 0 -1
    outer loop
      vertex 235 0 0
      vertex 6.21649 6.96733 0
      vertex 6.24161 7.23314 0
    endloop
  endfacet
  facet normal 0 0 -1
    outer loop
      vertex 235 0 0
      vertex 6.17472 6.70363 0
      vertex 6.21649 6.96733 0
    endloop
  endfacet
  facet normal 0 0 -1
    outer loop
      vertex 235 0 0
      vertex 6.11648 6.44307 0
      vertex 6.17472 6.70363 0
    endloop
  endfacet
  facet normal 0 0 -1
    outer loop
      vertex 235 0 0
      vertex 6.04199 6.18668 0
      vertex 6.11648 6.44307 0
    endloop
  endfacet
  facet normal 0 0 -1
    outer loop
      vertex 235 0 0
      vertex 5.95155 5.93547 0
      vertex 6.04199 6.18668 0
    endloop
  endfacet
  facet normal 0 0 -1
    outer loop
      vertex 235 0 0
      vertex 5.84551 5.69044 0
      vertex 5.95155 5.93547 0
    endloop
  endfacet
  facet normal 0 0 -1
    outer loop
      vertex 235 0 0
      vertex 5.7243 5.45255 0
      vertex 5.84551 5.69044 0
    endloop
  endfacet
  facet normal 0 0 -1
    outer loop
      vertex 235 0 0
      vertex 5.58839 5.22274 0
      vertex 5.7243 5.45255 0
    endloop
  endfacet
  facet normal 0 0 -1
    outer loop
      vertex 235 0 0
      vertex 5.43832 5.00191 0
      vertex 5.58839 5.22274 0
    endloop
  endfacet
  facet normal 0 0 -1
    outer loop
      vertex 235 0 0
      vertex 5.27468 4.79095 0
      vertex 5.43832 5.00191 0
    endloop
  endfacet
  facet normal 0 0 -1
    outer loop
      vertex 235 0 0
      vertex 5.09812 4.59067 0
      vertex 5.27468 4.79095 0
    endloop
  endfacet
  facet normal 0 0 -1
    outer loop
      vertex 235 0 0
      vertex 4.90932 4.40188 0
      vertex 5.09812 4.59067 0
    endloop
  endfacet
  facet normal 0 0 -1
    outer loop
      vertex 235 0 0
      vertex 4.70905 4.22532 0
      vertex 4.90932 4.40188 0
    endloop
  endfacet
  facet normal 0 0 -1
    outer loop
      vertex 0 0 0
      vertex 4.70905 4.22532 0
      vertex 235 0 0
    endloop
  endfacet
  facet normal 0 0 -1
    outer loop
      vertex 4.70905 4.22532 0
      vertex 0 0 0
      vertex 4.49809 4.06168 0
    endloop
  endfacet
  facet normal 0 0 -1
    outer loop
      vertex 4.49809 4.06168 0
      vertex 0 0 0
      vertex 4.27726 3.91161 0
    endloop
  endfacet
  facet normal 0 0 -1
    outer loop
      vertex 4.27726 3.91161 0
      vertex 0 0 0
      vertex 4.04745 3.7757 0
    endloop
  endfacet
  facet normal 0 0 -1
    outer loop
      vertex 4.04745 3.7757 0
      vertex 0 0 0
      vertex 3.80956 3.65448 0
    endloop
  endfacet
  facet normal 0 0 -1
    outer loop
      vertex 3.80956 3.65448 0
      vertex 0 0 0
      vertex 3.56453 3.54845 0
    endloop
  endfacet
  facet normal 0 0 -1
    outer loop
      vertex 3.56453 3.54845 0
      vertex 0 0 0
      vertex 3.31332 3.45801 0
    endloop
  endfacet
  facet normal 0 0 -1
    outer loop
      vertex 3.31332 3.45801 0
      vertex 0 0 0
      vertex 3.05693 3.38352 0
    endloop
  endfacet
  facet normal 0 0 -1
    outer loop
      vertex 3.05693 3.38352 0
      vertex 0 0 0
      vertex 2.79637 3.32528 0
    endloop
  endfacet
  facet normal 0 0 -1
    outer loop
      vertex 2.79637 3.32528 0
      vertex 0 0 0
      vertex 2.53267 3.28351 0
    endloop
  endfacet
  facet normal 0 0 -1
    outer loop
      vertex 2.53267 3.28351 0
      vertex 0 0 0
      vertex 2.26686 3.25839 0
    endloop
  endfacet
  facet normal 0 0 -1
    outer loop
      vertex 2.26686 3.25839 0
      vertex 0 0 0
      vertex 2 3.25 0
    endloop
  endfacet
  facet normal 0 0 -1
    outer loop
      vertex 0 0 0
      vertex 1.73314 3.25839 0
      vertex 2 3.25 0
    endloop
  endfacet
  facet normal 0 0 -1
    outer loop
      vertex 0 0 0
      vertex 1.46733 3.28351 0
      vertex 1.73314 3.25839 0
    endloop
  endfacet
  facet normal 0 0 -1
    outer loop
      vertex 0 0 0
      vertex 1.20363 3.32528 0
      vertex 1.46733 3.28351 0
    endloop
  endfacet
  facet normal 0 0 -1
    outer loop
      vertex 0 0 0
      vertex 0.943068 3.38352 0
      vertex 1.20363 3.32528 0
    endloop
  endfacet
  facet normal 0 0 -1
    outer loop
      vertex 0 0 0
      vertex 0.686677 3.45801 0
      vertex 0.943068 3.38352 0
    endloop
  endfacet
  facet normal 0 0 -1
    outer loop
      vertex 0 0 0
      vertex 0.435471 3.54845 0
      vertex 0.686677 3.45801 0
    endloop
  endfacet
  facet normal 0 0 -1
    outer loop
      vertex 0 0 0
      vertex 0.190437 3.65448 0
      vertex 0.435471 3.54845 0
    endloop
  endfacet
  facet normal -0 0 -1
    outer loop
      vertex 0.190437 3.65448 0
      vertex 0 0 0
      vertex 0 3.75152 0
    endloop
  endfacet
  facet normal 0 0 -1
    outer loop
      vertex 6.24161 7.76686 0
      vertex 235 15 0
      vertex 6.25 7.5 0
    endloop
  endfacet
  facet normal 0 0 -1
    outer loop
      vertex 6.21649 8.03267 0
      vertex 235 15 0
      vertex 6.24161 7.76686 0
    endloop
  endfacet
  facet normal 0 0 -1
    outer loop
      vertex 6.17472 8.29637 0
      vertex 235 15 0
      vertex 6.21649 8.03267 0
    endloop
  endfacet
  facet normal 0 0 -1
    outer loop
      vertex 6.11648 8.55693 0
      vertex 235 15 0
      vertex 6.17472 8.29637 0
    endloop
  endfacet
  facet normal 0 0 -1
    outer loop
      vertex 6.04199 8.81332 0
      vertex 235 15 0
      vertex 6.11648 8.55693 0
    endloop
  endfacet
  facet normal 0 0 -1
    outer loop
      vertex 5.95155 9.06453 0
      vertex 235 15 0
      vertex 6.04199 8.81332 0
    endloop
  endfacet
  facet normal 0 0 -1
    outer loop
      vertex 5.84551 9.30956 0
      vertex 235 15 0
      vertex 5.95155 9.06453 0
    endloop
  endfacet
  facet normal 0 0 -1
    outer loop
      vertex 5.7243 9.54745 0
      vertex 235 15 0
      vertex 5.84551 9.30956 0
    endloop
  endfacet
  facet normal 0 0 -1
    outer loop
      vertex 5.58839 9.77726 0
      vertex 235 15 0
      vertex 5.7243 9.54745 0
    endloop
  endfacet
  facet normal 0 0 -1
    outer loop
      vertex 5.43832 9.99809 0
      vertex 235 15 0
      vertex 5.58839 9.77726 0
    endloop
  endfacet
  facet normal 0 0 -1
    outer loop
      vertex 5.27468 10.2091 0
      vertex 235 15 0
      vertex 5.43832 9.99809 0
    endloop
  endfacet
  facet normal 0 0 -1
    outer loop
      vertex 5.09812 10.4093 0
      vertex 235 15 0
      vertex 5.27468 10.2091 0
    endloop
  endfacet
  facet normal 0 0 -1
    outer loop
      vertex 4.90932 10.5981 0
      vertex 235 15 0
      vertex 5.09812 10.4093 0
    endloop
  endfacet
  facet normal 0 0 -1
    outer loop
      vertex 4.70905 10.7747 0
      vertex 235 15 0
      vertex 4.90932 10.5981 0
    endloop
  endfacet
  facet normal 0 0 -1
    outer loop
      vertex 0 15 0
      vertex 4.70905 10.7747 0
      vertex 4.49809 10.9383 0
    endloop
  endfacet
  facet normal 0 0 -1
    outer loop
      vertex 0 15 0
      vertex 4.49809 10.9383 0
      vertex 4.27726 11.0884 0
    endloop
  endfacet
  facet normal 0 0 -1
    outer loop
      vertex 0 15 0
      vertex 4.27726 11.0884 0
      vertex 4.04745 11.2243 0
    endloop
  endfacet
  facet normal 0 0 -1
    outer loop
      vertex 0 15 0
      vertex 4.04745 11.2243 0
      vertex 3.80956 11.3455 0
    endloop
  endfacet
  facet normal 0 0 -1
    outer loop
      vertex 0 15 0
      vertex 3.80956 11.3455 0
      vertex 3.56453 11.4515 0
    endloop
  endfacet
  facet normal 0 0 -1
    outer loop
      vertex 0 15 0
      vertex 3.56453 11.4515 0
      vertex 3.31332 11.542 0
    endloop
  endfacet
  facet normal 0 0 -1
    outer loop
      vertex 0 15 0
      vertex 3.31332 11.542 0
      vertex 3.05693 11.6165 0
    endloop
  endfacet
  facet normal 0 0 -1
    outer loop
      vertex 0 15 0
      vertex 3.05693 11.6165 0
      vertex 2.79637 11.6747 0
    endloop
  endfacet
  facet normal 0 0 -1
    outer loop
      vertex 0 15 0
      vertex 2.79637 11.6747 0
      vertex 2.53267 11.7165 0
    endloop
  endfacet
  facet normal 0 0 -1
    outer loop
      vertex 0 15 0
      vertex 2.53267 11.7165 0
      vertex 2.26686 11.7416 0
    endloop
  endfacet
  facet normal 0 0 -1
    outer loop
      vertex 0 15 0
      vertex 2.26686 11.7416 0
      vertex 2 11.75 0
    endloop
  endfacet
  facet normal 0 0 -1
    outer loop
      vertex 4.70905 10.7747 0
      vertex 0 15 0
      vertex 235 15 0
    endloop
  endfacet
  facet normal 0 0 -1
    outer loop
      vertex 1.73314 11.7416 0
      vertex 0 15 0
      vertex 2 11.75 0
    endloop
  endfacet
  facet normal 0 0 -1
    outer loop
      vertex 1.46733 11.7165 0
      vertex 0 15 0
      vertex 1.73314 11.7416 0
    endloop
  endfacet
  facet normal 0 0 -1
    outer loop
      vertex 1.20363 11.6747 0
      vertex 0 15 0
      vertex 1.46733 11.7165 0
    endloop
  endfacet
  facet normal 0 0 -1
    outer loop
      vertex 0.943068 11.6165 0
      vertex 0 15 0
      vertex 1.20363 11.6747 0
    endloop
  endfacet
  facet normal 0 0 -1
    outer loop
      vertex 0.686677 11.542 0
      vertex 0 15 0
      vertex 0.943068 11.6165 0
    endloop
  endfacet
  facet normal 0 0 -1
    outer loop
      vertex 0.435471 11.4515 0
      vertex 0 15 0
      vertex 0.686677 11.542 0
    endloop
  endfacet
  facet normal 0 0 -1
    outer loop
      vertex 0.190437 11.3455 0
      vertex 0 15 0
      vertex 0.435471 11.4515 0
    endloop
  endfacet
  facet normal 0 0 -1
    outer loop
      vertex 0 15 0
      vertex 0.190437 11.3455 0
      vertex 0 11.2485 0
    endloop
  endfacet
  facet normal 0 -1 0
    outer loop
      vertex 0 0 40
      vertex 10 0 10
      vertex 10 0 40
    endloop
  endfacet
  facet normal 0 -1 0
    outer loop
      vertex 0 0 0
      vertex 10 0 10
      vertex 0 0 40
    endloop
  endfacet
  facet normal 0 -1 0
    outer loop
      vertex 235 0 0
      vertex 10 0 10
      vertex 0 0 0
    endloop
  endfacet
  facet normal 0 -1 0
    outer loop
      vertex 10 0 10
      vertex 235 0 0
      vertex 235 0 10
    endloop
  endfacet
  facet normal -0 0 1
    outer loop
      vertex 10 15 10
      vertex 235 0 10
      vertex 235 15 10
    endloop
  endfacet
  facet normal 0 0 1
    outer loop
      vertex 235 0 10
      vertex 10 15 10
      vertex 10 0 10
    endloop
  endfacet
  facet normal 1 -0 0
    outer loop
      vertex 235 0 10
      vertex 235 15 0
      vertex 235 15 10
    endloop
  endfacet
  facet normal 1 0 0
    outer loop
      vertex 235 15 0
      vertex 235 0 10
      vertex 235 0 0
    endloop
  endfacet
  facet normal -0.612908 -0.790154 0
    outer loop
      vertex 4.49809 10.9383 0
      vertex 4.70905 10.7747 40
      vertex 4.49809 10.9383 40
    endloop
  endfacet
  facet normal -0.612908 -0.790154 -0
    outer loop
      vertex 4.70905 10.7747 40
      vertex 4.49809 10.9383 0
      vertex 4.70905 10.7747 0
    endloop
  endfacet
  facet normal 0.45399 -0.891007 0
    outer loop
      vertex 0 11.2485 0
      vertex 0.190437 11.3455 40
      vertex 0 11.2485 40
    endloop
  endfacet
  facet normal 0.45399 -0.891007 0
    outer loop
      vertex 0.190437 11.3455 40
      vertex 0 11.2485 0
      vertex 0.190437 11.3455 0
    endloop
  endfacet
  facet normal 0.338738 0.940881 -0
    outer loop
      vertex 0.686677 3.45801 0
      vertex 0.435471 3.54845 40
      vertex 0.686677 3.45801 40
    endloop
  endfacet
  facet normal 0.338738 0.940881 0
    outer loop
      vertex 0.435471 3.54845 40
      vertex 0.686677 3.45801 0
      vertex 0.435471 3.54845 0
    endloop
  endfacet
  facet normal -0.940881 -0.338738 0
    outer loop
      vertex 6.04199 8.81332 0
      vertex 5.95155 9.06453 40
      vertex 5.95155 9.06453 0
    endloop
  endfacet
  facet normal -0.940881 -0.338738 0
    outer loop
      vertex 5.95155 9.06453 40
      vertex 6.04199 8.81332 0
      vertex 6.04199 8.81332 40
    endloop
  endfacet
  facet normal -0.860741 -0.509042 0
    outer loop
      vertex 5.7243 9.54745 0
      vertex 5.58839 9.77726 40
      vertex 5.58839 9.77726 0
    endloop
  endfacet
  facet normal -0.860741 -0.509042 0
    outer loop
      vertex 5.58839 9.77726 40
      vertex 5.7243 9.54745 0
      vertex 5.7243 9.54745 40
    endloop
  endfacet
  facet normal -0.338738 -0.940881 0
    outer loop
      vertex 3.31332 11.542 0
      vertex 3.56453 11.4515 40
      vertex 3.31332 11.542 40
    endloop
  endfacet
  facet normal -0.338738 -0.940881 -0
    outer loop
      vertex 3.56453 11.4515 40
      vertex 3.31332 11.542 0
      vertex 3.56453 11.4515 0
    endloop
  endfacet
  facet normal 0.218145 -0.975916 0
    outer loop
      vertex 0.943068 11.6165 0
      vertex 1.20363 11.6747 40
      vertex 0.943068 11.6165 40
    endloop
  endfacet
  facet normal 0.218145 -0.975916 0
    outer loop
      vertex 1.20363 11.6747 40
      vertex 0.943068 11.6165 0
      vertex 1.20363 11.6747 0
    endloop
  endfacet
  facet normal -0.940881 0.338738 0
    outer loop
      vertex 5.95155 5.93547 0
      vertex 6.04199 6.18668 40
      vertex 6.04199 6.18668 0
    endloop
  endfacet
  facet normal -0.940881 0.338738 0
    outer loop
      vertex 6.04199 6.18668 40
      vertex 5.95155 5.93547 0
      vertex 5.95155 5.93547 40
    endloop
  endfacet
  facet normal 0.0941094 0.995562 -0
    outer loop
      vertex 1.73314 3.25839 0
      vertex 1.46733 3.28351 40
      vertex 1.73314 3.25839 40
    endloop
  endfacet
  facet normal 0.0941094 0.995562 0
    outer loop
      vertex 1.46733 3.28351 40
      vertex 1.73314 3.25839 0
      vertex 1.46733 3.28351 0
    endloop
  endfacet
  facet normal -0.975916 -0.218145 0
    outer loop
      vertex 6.17472 8.29637 0
      vertex 6.11648 8.55693 40
      vertex 6.11648 8.55693 0
    endloop
  endfacet
  facet normal -0.975916 -0.218145 0
    outer loop
      vertex 6.11648 8.55693 40
      vertex 6.17472 8.29637 0
      vertex 6.17472 8.29637 40
    endloop
  endfacet
  facet normal -0.75011 -0.661313 0
    outer loop
      vertex 5.27468 10.2091 0
      vertex 5.09812 10.4093 40
      vertex 5.09812 10.4093 0
    endloop
  endfacet
  facet normal -0.75011 -0.661313 0
    outer loop
      vertex 5.09812 10.4093 40
      vertex 5.27468 10.2091 0
      vertex 5.27468 10.2091 40
    endloop
  endfacet
  facet normal -0.790154 -0.612908 0
    outer loop
      vertex 5.43832 9.99809 0
      vertex 5.27468 10.2091 40
      vertex 5.27468 10.2091 0
    endloop
  endfacet
  facet normal -0.790154 -0.612908 0
    outer loop
      vertex 5.27468 10.2091 40
      vertex 5.43832 9.99809 0
      vertex 5.43832 9.99809 40
    endloop
  endfacet
  facet normal -0.509042 -0.860741 0
    outer loop
      vertex 4.04745 11.2243 0
      vertex 4.27726 11.0884 40
      vertex 4.04745 11.2243 40
    endloop
  endfacet
  facet normal -0.509042 -0.860741 -0
    outer loop
      vertex 4.27726 11.0884 40
      vertex 4.04745 11.2243 0
      vertex 4.27726 11.0884 0
    endloop
  endfacet
  facet normal 0.0314115 -0.999507 0
    outer loop
      vertex 1.73314 11.7416 0
      vertex 2 11.75 40
      vertex 1.73314 11.7416 40
    endloop
  endfacet
  facet normal 0.0314115 -0.999507 0
    outer loop
      vertex 2 11.75 40
      vertex 1.73314 11.7416 0
      vertex 2 11.75 0
    endloop
  endfacet
  facet normal -0.156433 -0.987689 0
    outer loop
      vertex 2.53267 11.7165 0
      vertex 2.79637 11.6747 40
      vertex 2.53267 11.7165 40
    endloop
  endfacet
  facet normal -0.156433 -0.987689 -0
    outer loop
      vertex 2.79637 11.6747 40
      vertex 2.53267 11.7165 0
      vertex 2.79637 11.6747 0
    endloop
  endfacet
  facet normal 0.156433 -0.987689 0
    outer loop
      vertex 1.20363 11.6747 0
      vertex 1.46733 11.7165 40
      vertex 1.20363 11.6747 40
    endloop
  endfacet
  facet normal 0.156433 -0.987689 0
    outer loop
      vertex 1.46733 11.7165 40
      vertex 1.20363 11.6747 0
      vertex 1.46733 11.7165 0
    endloop
  endfacet
  facet normal -0.999507 -0.0314116 0
    outer loop
      vertex 6.25 7.5 0
      vertex 6.24161 7.76686 40
      vertex 6.24161 7.76686 0
    endloop
  endfacet
  facet normal -0.999507 -0.0314116 0
    outer loop
      vertex 6.24161 7.76686 40
      vertex 6.25 7.5 0
      vertex 6.25 7.5 40
    endloop
  endfacet
  facet normal -0.790154 0.612908 0
    outer loop
      vertex 5.27468 4.79095 0
      vertex 5.43832 5.00191 40
      vertex 5.43832 5.00191 0
    endloop
  endfacet
  facet normal -0.790154 0.612908 0
    outer loop
      vertex 5.43832 5.00191 40
      vertex 5.27468 4.79095 0
      vertex 5.27468 4.79095 40
    endloop
  endfacet
  facet normal -0.218145 0.975916 0
    outer loop
      vertex 3.05693 3.38352 0
      vertex 2.79637 3.32528 40
      vertex 3.05693 3.38352 40
    endloop
  endfacet
  facet normal -0.218145 0.975916 0
    outer loop
      vertex 2.79637 3.32528 40
      vertex 3.05693 3.38352 0
      vertex 2.79637 3.32528 0
    endloop
  endfacet
  facet normal -0.661313 0.75011 0
    outer loop
      vertex 4.90932 4.40188 0
      vertex 4.70905 4.22532 40
      vertex 4.90932 4.40188 40
    endloop
  endfacet
  facet normal -0.661313 0.75011 0
    outer loop
      vertex 4.70905 4.22532 40
      vertex 4.90932 4.40188 0
      vertex 4.70905 4.22532 0
    endloop
  endfacet
  facet normal 0.031408 0.999507 -0
    outer loop
      vertex 2 3.25 0
      vertex 1.73314 3.25839 40
      vertex 2 3.25 40
    endloop
  endfacet
  facet normal 0.031408 0.999507 0
    outer loop
      vertex 1.73314 3.25839 40
      vertex 2 3.25 0
      vertex 1.73314 3.25839 0
    endloop
  endfacet
  facet normal 0.45399 0.891007 -0
    outer loop
      vertex 0.190437 3.65448 0
      vertex 0 3.75152 40
      vertex 0.190437 3.65448 40
    endloop
  endfacet
  facet normal 0.45399 0.891007 0
    outer loop
      vertex 0 3.75152 40
      vertex 0.190437 3.65448 0
      vertex 0 3.75152 0
    endloop
  endfacet
  facet normal -0.987689 -0.156433 0
    outer loop
      vertex 6.21649 8.03267 0
      vertex 6.17472 8.29637 40
      vertex 6.17472 8.29637 0
    endloop
  endfacet
  facet normal -0.987689 -0.156433 0
    outer loop
      vertex 6.17472 8.29637 40
      vertex 6.21649 8.03267 0
      vertex 6.21649 8.03267 40
    endloop
  endfacet
  facet normal -0.891007 -0.453989 0
    outer loop
      vertex 5.84551 9.30956 0
      vertex 5.7243 9.54745 40
      vertex 5.7243 9.54745 0
    endloop
  endfacet
  facet normal -0.891007 -0.453989 0
    outer loop
      vertex 5.7243 9.54745 40
      vertex 5.84551 9.30956 0
      vertex 5.84551 9.30956 40
    endloop
  endfacet
  facet normal -0.917755 -0.397147 0
    outer loop
      vertex 5.95155 9.06453 0
      vertex 5.84551 9.30956 40
      vertex 5.84551 9.30956 0
    endloop
  endfacet
  facet normal -0.917755 -0.397147 0
    outer loop
      vertex 5.84551 9.30956 40
      vertex 5.95155 9.06453 0
      vertex 5.95155 9.06453 40
    endloop
  endfacet
  facet normal -0.960293 -0.278992 0
    outer loop
      vertex 6.11648 8.55693 0
      vertex 6.04199 8.81332 40
      vertex 6.04199 8.81332 0
    endloop
  endfacet
  facet normal -0.960293 -0.278992 0
    outer loop
      vertex 6.04199 8.81332 40
      vertex 6.11648 8.55693 0
      vertex 6.11648 8.55693 40
    endloop
  endfacet
  facet normal -0.827081 -0.562083 0
    outer loop
      vertex 5.58839 9.77726 0
      vertex 5.43832 9.99809 40
      vertex 5.43832 9.99809 0
    endloop
  endfacet
  facet normal -0.827081 -0.562083 0
    outer loop
      vertex 5.43832 9.99809 40
      vertex 5.58839 9.77726 0
      vertex 5.58839 9.77726 40
    endloop
  endfacet
  facet normal -0.707107 -0.707107 0
    outer loop
      vertex 5.09812 10.4093 0
      vertex 4.90932 10.5981 40
      vertex 4.90932 10.5981 0
    endloop
  endfacet
  facet normal -0.707107 -0.707107 0
    outer loop
      vertex 4.90932 10.5981 40
      vertex 5.09812 10.4093 0
      vertex 5.09812 10.4093 40
    endloop
  endfacet
  facet normal -0.661313 -0.75011 0
    outer loop
      vertex 4.70905 10.7747 0
      vertex 4.90932 10.5981 40
      vertex 4.70905 10.7747 40
    endloop
  endfacet
  facet normal -0.661313 -0.75011 -0
    outer loop
      vertex 4.90932 10.5981 40
      vertex 4.70905 10.7747 0
      vertex 4.90932 10.5981 0
    endloop
  endfacet
  facet normal -0.562083 -0.827081 0
    outer loop
      vertex 4.27726 11.0884 0
      vertex 4.49809 10.9383 40
      vertex 4.27726 11.0884 40
    endloop
  endfacet
  facet normal -0.562083 -0.827081 -0
    outer loop
      vertex 4.49809 10.9383 40
      vertex 4.27726 11.0884 0
      vertex 4.49809 10.9383 0
    endloop
  endfacet
  facet normal -0.397147 -0.917755 0
    outer loop
      vertex 3.56453 11.4515 0
      vertex 3.80956 11.3455 40
      vertex 3.56453 11.4515 40
    endloop
  endfacet
  facet normal -0.397147 -0.917755 -0
    outer loop
      vertex 3.80956 11.3455 40
      vertex 3.56453 11.4515 0
      vertex 3.80956 11.3455 0
    endloop
  endfacet
  facet normal -0.453989 -0.891007 0
    outer loop
      vertex 3.80956 11.3455 0
      vertex 4.04745 11.2243 40
      vertex 3.80956 11.3455 40
    endloop
  endfacet
  facet normal -0.453989 -0.891007 -0
    outer loop
      vertex 4.04745 11.2243 40
      vertex 3.80956 11.3455 0
      vertex 4.04745 11.2243 0
    endloop
  endfacet
  facet normal -0.218145 -0.975916 0
    outer loop
      vertex 2.79637 11.6747 0
      vertex 3.05693 11.6165 40
      vertex 2.79637 11.6747 40
    endloop
  endfacet
  facet normal -0.218145 -0.975916 -0
    outer loop
      vertex 3.05693 11.6165 40
      vertex 2.79637 11.6747 0
      vertex 3.05693 11.6165 0
    endloop
  endfacet
  facet normal -0.278992 -0.960293 0
    outer loop
      vertex 3.05693 11.6165 0
      vertex 3.31332 11.542 40
      vertex 3.05693 11.6165 40
    endloop
  endfacet
  facet normal -0.278992 -0.960293 -0
    outer loop
      vertex 3.31332 11.542 40
      vertex 3.05693 11.6165 0
      vertex 3.31332 11.542 0
    endloop
  endfacet
  facet normal -0.0941094 -0.995562 0
    outer loop
      vertex 2.26686 11.7416 0
      vertex 2.53267 11.7165 40
      vertex 2.26686 11.7416 40
    endloop
  endfacet
  facet normal -0.0941094 -0.995562 -0
    outer loop
      vertex 2.53267 11.7165 40
      vertex 2.26686 11.7416 0
      vertex 2.53267 11.7165 0
    endloop
  endfacet
  facet normal -0.0314116 -0.999507 0
    outer loop
      vertex 2 11.75 0
      vertex 2.26686 11.7416 40
      vertex 2 11.75 40
    endloop
  endfacet
  facet normal -0.0314116 -0.999507 -0
    outer loop
      vertex 2.26686 11.7416 40
      vertex 2 11.75 0
      vertex 2.26686 11.7416 0
    endloop
  endfacet
  facet normal 0.338738 -0.940881 0
    outer loop
      vertex 0.435471 11.4515 0
      vertex 0.686677 11.542 40
      vertex 0.435471 11.4515 40
    endloop
  endfacet
  facet normal 0.338738 -0.940881 0
    outer loop
      vertex 0.686677 11.542 40
      vertex 0.435471 11.4515 0
      vertex 0.686677 11.542 0
    endloop
  endfacet
  facet normal 0.278992 -0.960293 0
    outer loop
      vertex 0.686677 11.542 0
      vertex 0.943068 11.6165 40
      vertex 0.686677 11.542 40
    endloop
  endfacet
  facet normal 0.278992 -0.960293 0
    outer loop
      vertex 0.943068 11.6165 40
      vertex 0.686677 11.542 0
      vertex 0.943068 11.6165 0
    endloop
  endfacet
  facet normal 0.397147 -0.917755 0
    outer loop
      vertex 0.190437 11.3455 0
      vertex 0.435471 11.4515 40
      vertex 0.190437 11.3455 40
    endloop
  endfacet
  facet normal 0.397147 -0.917755 0
    outer loop
      vertex 0.435471 11.4515 40
      vertex 0.190437 11.3455 0
      vertex 0.435471 11.4515 0
    endloop
  endfacet
  facet normal 0.0941094 -0.995562 0
    outer loop
      vertex 1.46733 11.7165 0
      vertex 1.73314 11.7416 40
      vertex 1.46733 11.7165 40
    endloop
  endfacet
  facet normal 0.0941094 -0.995562 0
    outer loop
      vertex 1.73314 11.7416 40
      vertex 1.46733 11.7165 0
      vertex 1.73314 11.7416 0
    endloop
  endfacet
  facet normal -0.999507 0.0314115 0
    outer loop
      vertex 6.24161 7.23314 0
      vertex 6.25 7.5 40
      vertex 6.25 7.5 0
    endloop
  endfacet
  facet normal -0.999507 0.0314115 0
    outer loop
      vertex 6.25 7.5 40
      vertex 6.24161 7.23314 0
      vertex 6.24161 7.23314 40
    endloop
  endfacet
  facet normal -0.0941094 0.995562 0
    outer loop
      vertex 2.53267 3.28351 0
      vertex 2.26686 3.25839 40
      vertex 2.53267 3.28351 40
    endloop
  endfacet
  facet normal -0.0941094 0.995562 0
    outer loop
      vertex 2.26686 3.25839 40
      vertex 2.53267 3.28351 0
      vertex 2.26686 3.25839 0
    endloop
  endfacet
  facet normal -0.987689 0.156433 0
    outer loop
      vertex 6.17472 6.70363 0
      vertex 6.21649 6.96733 40
      vertex 6.21649 6.96733 0
    endloop
  endfacet
  facet normal -0.987689 0.156433 0
    outer loop
      vertex 6.21649 6.96733 40
      vertex 6.17472 6.70363 0
      vertex 6.17472 6.70363 40
    endloop
  endfacet
  facet normal -0.960293 0.278992 0
    outer loop
      vertex 6.04199 6.18668 0
      vertex 6.11648 6.44307 40
      vertex 6.11648 6.44307 0
    endloop
  endfacet
  facet normal -0.960293 0.278992 0
    outer loop
      vertex 6.11648 6.44307 40
      vertex 6.04199 6.18668 0
      vertex 6.04199 6.18668 40
    endloop
  endfacet
  facet normal -0.860741 0.509042 0
    outer loop
      vertex 5.58839 5.22274 0
      vertex 5.7243 5.45255 40
      vertex 5.7243 5.45255 0
    endloop
  endfacet
  facet normal -0.860741 0.509042 0
    outer loop
      vertex 5.7243 5.45255 40
      vertex 5.58839 5.22274 0
      vertex 5.58839 5.22274 40
    endloop
  endfacet
  facet normal -0.156433 0.987689 0
    outer loop
      vertex 2.79637 3.32528 0
      vertex 2.53267 3.28351 40
      vertex 2.79637 3.32528 40
    endloop
  endfacet
  facet normal -0.156433 0.987689 0
    outer loop
      vertex 2.53267 3.28351 40
      vertex 2.79637 3.32528 0
      vertex 2.53267 3.28351 0
    endloop
  endfacet
  facet normal -0.397147 0.917755 0
    outer loop
      vertex 3.80956 3.65448 0
      vertex 3.56453 3.54845 40
      vertex 3.80956 3.65448 40
    endloop
  endfacet
  facet normal -0.397147 0.917755 0
    outer loop
      vertex 3.56453 3.54845 40
      vertex 3.80956 3.65448 0
      vertex 3.56453 3.54845 0
    endloop
  endfacet
  facet normal -0.278992 0.960293 0
    outer loop
      vertex 3.31332 3.45801 0
      vertex 3.05693 3.38352 40
      vertex 3.31332 3.45801 40
    endloop
  endfacet
  facet normal -0.278992 0.960293 0
    outer loop
      vertex 3.05693 3.38352 40
      vertex 3.31332 3.45801 0
      vertex 3.05693 3.38352 0
    endloop
  endfacet
  facet normal -0.75011 0.661313 0
    outer loop
      vertex 5.09812 4.59067 0
      vertex 5.27468 4.79095 40
      vertex 5.27468 4.79095 0
    endloop
  endfacet
  facet normal -0.75011 0.661313 0
    outer loop
      vertex 5.27468 4.79095 40
      vertex 5.09812 4.59067 0
      vertex 5.09812 4.59067 40
    endloop
  endfacet
  facet normal -0.707107 0.707107 0
    outer loop
      vertex 4.90932 4.40188 0
      vertex 5.09812 4.59067 40
      vertex 5.09812 4.59067 0
    endloop
  endfacet
  facet normal -0.707107 0.707107 0
    outer loop
      vertex 5.09812 4.59067 40
      vertex 4.90932 4.40188 0
      vertex 4.90932 4.40188 40
    endloop
  endfacet
  facet normal -0.612908 0.790154 0
    outer loop
      vertex 4.70905 4.22532 0
      vertex 4.49809 4.06168 40
      vertex 4.70905 4.22532 40
    endloop
  endfacet
  facet normal -0.612908 0.790154 0
    outer loop
      vertex 4.49809 4.06168 40
      vertex 4.70905 4.22532 0
      vertex 4.49809 4.06168 0
    endloop
  endfacet
  facet normal -0.509042 0.860741 0
    outer loop
      vertex 4.27726 3.91161 0
      vertex 4.04745 3.7757 40
      vertex 4.27726 3.91161 40
    endloop
  endfacet
  facet normal -0.509042 0.860741 0
    outer loop
      vertex 4.04745 3.7757 40
      vertex 4.27726 3.91161 0
      vertex 4.04745 3.7757 0
    endloop
  endfacet
  facet normal -0.0314079 0.999507 0
    outer loop
      vertex 2.26686 3.25839 0
      vertex 2 3.25 40
      vertex 2.26686 3.25839 40
    endloop
  endfacet
  facet normal -0.0314079 0.999507 0
    outer loop
      vertex 2 3.25 40
      vertex 2.26686 3.25839 0
      vertex 2 3.25 0
    endloop
  endfacet
  facet normal 0.278992 0.960293 -0
    outer loop
      vertex 0.943068 3.38352 0
      vertex 0.686677 3.45801 40
      vertex 0.943068 3.38352 40
    endloop
  endfacet
  facet normal 0.278992 0.960293 0
    outer loop
      vertex 0.686677 3.45801 40
      vertex 0.943068 3.38352 0
      vertex 0.686677 3.45801 0
    endloop
  endfacet
  facet normal 0.156433 0.987689 -0
    outer loop
      vertex 1.46733 3.28351 0
      vertex 1.20363 3.32528 40
      vertex 1.46733 3.28351 40
    endloop
  endfacet
  facet normal 0.156433 0.987689 0
    outer loop
      vertex 1.20363 3.32528 40
      vertex 1.46733 3.28351 0
      vertex 1.20363 3.32528 0
    endloop
  endfacet
  facet normal 0.397147 0.917755 -0
    outer loop
      vertex 0.435471 3.54845 0
      vertex 0.190437 3.65448 40
      vertex 0.435471 3.54845 40
    endloop
  endfacet
  facet normal 0.397147 0.917755 0
    outer loop
      vertex 0.190437 3.65448 40
      vertex 0.435471 3.54845 0
      vertex 0.190437 3.65448 0
    endloop
  endfacet
  facet normal -0.995562 -0.0941094 0
    outer loop
      vertex 6.24161 7.76686 0
      vertex 6.21649 8.03267 40
      vertex 6.21649 8.03267 0
    endloop
  endfacet
  facet normal -0.995562 -0.0941094 0
    outer loop
      vertex 6.21649 8.03267 40
      vertex 6.24161 7.76686 0
      vertex 6.24161 7.76686 40
    endloop
  endfacet
  facet normal -0.975916 0.218145 0
    outer loop
      vertex 6.11648 6.44307 0
      vertex 6.17472 6.70363 40
      vertex 6.17472 6.70363 0
    endloop
  endfacet
  facet normal -0.975916 0.218145 0
    outer loop
      vertex 6.17472 6.70363 40
      vertex 6.11648 6.44307 0
      vertex 6.11648 6.44307 40
    endloop
  endfacet
  facet normal -0.917755 0.397147 0
    outer loop
      vertex 5.84551 5.69044 0
      vertex 5.95155 5.93547 40
      vertex 5.95155 5.93547 0
    endloop
  endfacet
  facet normal -0.917755 0.397147 0
    outer loop
      vertex 5.95155 5.93547 40
      vertex 5.84551 5.69044 0
      vertex 5.84551 5.69044 40
    endloop
  endfacet
  facet normal -0.891007 0.453989 0
    outer loop
      vertex 5.7243 5.45255 0
      vertex 5.84551 5.69044 40
      vertex 5.84551 5.69044 0
    endloop
  endfacet
  facet normal -0.891007 0.453989 0
    outer loop
      vertex 5.84551 5.69044 40
      vertex 5.7243 5.45255 0
      vertex 5.7243 5.45255 40
    endloop
  endfacet
  facet normal -0.453989 0.891007 0
    outer loop
      vertex 4.04745 3.7757 0
      vertex 3.80956 3.65448 40
      vertex 4.04745 3.7757 40
    endloop
  endfacet
  facet normal -0.453989 0.891007 0
    outer loop
      vertex 3.80956 3.65448 40
      vertex 4.04745 3.7757 0
      vertex 3.80956 3.65448 0
    endloop
  endfacet
  facet normal -0.338738 0.940881 0
    outer loop
      vertex 3.56453 3.54845 0
      vertex 3.31332 3.45801 40
      vertex 3.56453 3.54845 40
    endloop
  endfacet
  facet normal -0.338738 0.940881 0
    outer loop
      vertex 3.31332 3.45801 40
      vertex 3.56453 3.54845 0
      vertex 3.31332 3.45801 0
    endloop
  endfacet
  facet normal -0.562083 0.827081 0
    outer loop
      vertex 4.49809 4.06168 0
      vertex 4.27726 3.91161 40
      vertex 4.49809 4.06168 40
    endloop
  endfacet
  facet normal -0.562083 0.827081 0
    outer loop
      vertex 4.27726 3.91161 40
      vertex 4.49809 4.06168 0
      vertex 4.27726 3.91161 0
    endloop
  endfacet
  facet normal 0.218145 0.975916 -0
    outer loop
      vertex 1.20363 3.32528 0
      vertex 0.943068 3.38352 40
      vertex 1.20363 3.32528 40
    endloop
  endfacet
  facet normal 0.218145 0.975916 0
    outer loop
      vertex 0.943068 3.38352 40
      vertex 1.20363 3.32528 0
      vertex 0.943068 3.38352 0
    endloop
  endfacet
  facet normal -0.995562 0.0941094 0
    outer loop
      vertex 6.21649 6.96733 0
      vertex 6.24161 7.23314 40
      vertex 6.24161 7.23314 0
    endloop
  endfacet
  facet normal -0.995562 0.0941094 0
    outer loop
      vertex 6.24161 7.23314 40
      vertex 6.21649 6.96733 0
      vertex 6.21649 6.96733 40
    endloop
  endfacet
  facet normal -0.827081 0.562083 0
    outer loop
      vertex 5.43832 5.00191 0
      vertex 5.58839 5.22274 40
      vertex 5.58839 5.22274 0
    endloop
  endfacet
  facet normal -0.827081 0.562083 0
    outer loop
      vertex 5.58839 5.22274 40
      vertex 5.43832 5.00191 0
      vertex 5.43832 5.00191 40
    endloop
  endfacet
endsolid OpenSCAD_Model
