solid OpenSCAD_Model
  facet normal -1 0 0
    outer loop
      vertex 0 0 0
      vertex 0 0 0.35
      vertex 0 20 0
    endloop
  endfacet
  facet normal -1 0 0
    outer loop
      vertex 0 20 0
      vertex 0 0 0.35
      vertex 0 20 0.35
    endloop
  endfacet
  facet normal 0 -1 0
    outer loop
      vertex 0 0 0.35
      vertex 0 0 0
      vertex 100 0 0
    endloop
  endfacet
  facet normal 0 -1 0
    outer loop
      vertex 10 0 0.35
      vertex 0 0 0.35
      vertex 100 0 0
    endloop
  endfacet
  facet normal 0 -1 0
    outer loop
      vertex 30 0 1.4
      vertex 30 0 1.05
      vertex 40 0 1.4
    endloop
  endfacet
  facet normal 0 -1 0
    outer loop
      vertex 100 0 3.5
      vertex 90 0 3.15
      vertex 100 0 0
    endloop
  endfacet
  facet normal 0 -1 0
    outer loop
      vertex 60 0 2.45
      vertex 60 0 2.1
      vertex 70 0 2.45
    endloop
  endfacet
  facet normal 0 -1 0
    outer loop
      vertex 90 0 3.15
      vertex 80 0 2.8
      vertex 100 0 0
    endloop
  endfacet
  facet normal 0 -1 0
    outer loop
      vertex 80 0 3.15
      vertex 80 0 2.8
      vertex 90 0 3.15
    endloop
  endfacet
  facet normal 0 -1 0
    outer loop
      vertex 80 0 2.8
      vertex 70 0 2.45
      vertex 100 0 0
    endloop
  endfacet
  facet normal 0 -1 0
    outer loop
      vertex 70 0 2.45
      vertex 60 0 2.1
      vertex 100 0 0
    endloop
  endfacet
  facet normal 0 -1 0
    outer loop
      vertex 60 0 2.1
      vertex 50 0 1.75
      vertex 100 0 0
    endloop
  endfacet
  facet normal 0 -1 0
    outer loop
      vertex 50 0 1.75
      vertex 40 0 1.4
      vertex 100 0 0
    endloop
  endfacet
  facet normal 0 -1 0
    outer loop
      vertex 10 0 0.7
      vertex 10 0 0.35
      vertex 20 0 0.7
    endloop
  endfacet
  facet normal 0 -1 0
    outer loop
      vertex 40 0 1.4
      vertex 30 0 1.05
      vertex 100 0 0
    endloop
  endfacet
  facet normal 0 -1 0
    outer loop
      vertex 30 0 1.05
      vertex 20 0 0.7
      vertex 100 0 0
    endloop
  endfacet
  facet normal 0 -1 0
    outer loop
      vertex 50 0 2.1
      vertex 50 0 1.75
      vertex 60 0 2.1
    endloop
  endfacet
  facet normal 0 -1 0
    outer loop
      vertex 20 0 0.7
      vertex 10 0 0.35
      vertex 100 0 0
    endloop
  endfacet
  facet normal 0 -1 0
    outer loop
      vertex 70 0 2.8
      vertex 70 0 2.45
      vertex 80 0 2.8
    endloop
  endfacet
  facet normal 0 -1 0
    outer loop
      vertex 90 0 3.5
      vertex 90 0 3.15
      vertex 100 0 3.5
    endloop
  endfacet
  facet normal 0 -1 0
    outer loop
      vertex 20 0 1.05
      vertex 20 0 0.7
      vertex 30 0 1.05
    endloop
  endfacet
  facet normal 0 -1 0
    outer loop
      vertex 40 0 1.75
      vertex 40 0 1.4
      vertex 50 0 1.75
    endloop
  endfacet
  facet normal 0 0 -1
    outer loop
      vertex 0 0 0
      vertex 0 20 0
      vertex 100 0 0
    endloop
  endfacet
  facet normal 0 0 -1
    outer loop
      vertex 100 0 0
      vertex 0 20 0
      vertex 100 20 0
    endloop
  endfacet
  facet normal 0 1 0
    outer loop
      vertex 0 20 0
      vertex 0 20 0.35
      vertex 100 20 0
    endloop
  endfacet
  facet normal 0 1 0
    outer loop
      vertex 100 20 0
      vertex 0 20 0.35
      vertex 10 20 0.35
    endloop
  endfacet
  facet normal 0 1 0
    outer loop
      vertex 100 20 0
      vertex 10 20 0.35
      vertex 10 20 0.7
    endloop
  endfacet
  facet normal 0 1 0
    outer loop
      vertex 100 20 0
      vertex 10 20 0.7
      vertex 20 20 0.7
    endloop
  endfacet
  facet normal 0 1 0
    outer loop
      vertex 100 20 0
      vertex 20 20 0.7
      vertex 20 20 1.05
    endloop
  endfacet
  facet normal 0 1 0
    outer loop
      vertex 100 20 0
      vertex 20 20 1.05
      vertex 30 20 1.05
    endloop
  endfacet
  facet normal 0 1 0
    outer loop
      vertex 100 20 0
      vertex 30 20 1.05
      vertex 30 20 1.4
    endloop
  endfacet
  facet normal 0 1 0
    outer loop
      vertex 100 20 0
      vertex 30 20 1.4
      vertex 40 20 1.4
    endloop
  endfacet
  facet normal 0 1 0
    outer loop
      vertex 100 20 0
      vertex 40 20 1.4
      vertex 40 20 1.75
    endloop
  endfacet
  facet normal 0 1 0
    outer loop
      vertex 100 20 0
      vertex 40 20 1.75
      vertex 50 20 1.75
    endloop
  endfacet
  facet normal 0 1 0
    outer loop
      vertex 100 20 0
      vertex 50 20 1.75
      vertex 50 20 2.1
    endloop
  endfacet
  facet normal 0 1 0
    outer loop
      vertex 100 20 0
      vertex 50 20 2.1
      vertex 60 20 2.1
    endloop
  endfacet
  facet normal 0 1 0
    outer loop
      vertex 100 20 0
      vertex 60 20 2.1
      vertex 60 20 2.45
    endloop
  endfacet
  facet normal 0 1 0
    outer loop
      vertex 100 20 0
      vertex 60 20 2.45
      vertex 70 20 2.45
    endloop
  endfacet
  facet normal 0 1 0
    outer loop
      vertex 100 20 0
      vertex 70 20 2.45
      vertex 70 20 2.8
    endloop
  endfacet
  facet normal 0 1 0
    outer loop
      vertex 100 20 0
      vertex 70 20 2.8
      vertex 80 20 2.8
    endloop
  endfacet
  facet normal 0 1 0
    outer loop
      vertex 100 20 0
      vertex 80 20 2.8
      vertex 80 20 3.15
    endloop
  endfacet
  facet normal 0 1 0
    outer loop
      vertex 100 20 0
      vertex 80 20 3.15
      vertex 90 20 3.15
    endloop
  endfacet
  facet normal 0 1 0
    outer loop
      vertex 100 20 0
      vertex 90 20 3.15
      vertex 90 20 3.5
    endloop
  endfacet
  facet normal 0 1 0
    outer loop
      vertex 100 20 0
      vertex 90 20 3.5
      vertex 100 20 3.5
    endloop
  endfacet
  facet normal 0 0 1
    outer loop
      vertex 0 20 0.35
      vertex 0 0 0.35
      vertex 10 0 0.35
    endloop
  endfacet
  facet normal 0 0 1
    outer loop
      vertex 10 20 0.35
      vertex 0 20 0.35
      vertex 10 0 0.35
    endloop
  endfacet
  facet normal -1 0 0
    outer loop
      vertex 10 20 0.7
      vertex 10 20 0.35
      vertex 10 0 0.7
    endloop
  endfacet
  facet normal -1 0 0
    outer loop
      vertex 10 0 0.7
      vertex 10 20 0.35
      vertex 10 0 0.35
    endloop
  endfacet
  facet normal 0 0 1
    outer loop
      vertex 10 20 0.7
      vertex 10 0 0.7
      vertex 20 0 0.7
    endloop
  endfacet
  facet normal 0 0 1
    outer loop
      vertex 20 20 0.7
      vertex 10 20 0.7
      vertex 20 0 0.7
    endloop
  endfacet
  facet normal -1 0 0
    outer loop
      vertex 20 20 1.05
      vertex 20 20 0.7
      vertex 20 0 1.05
    endloop
  endfacet
  facet normal -1 0 0
    outer loop
      vertex 20 0 1.05
      vertex 20 20 0.7
      vertex 20 0 0.7
    endloop
  endfacet
  facet normal 0 0 1
    outer loop
      vertex 20 20 1.05
      vertex 20 0 1.05
      vertex 30 0 1.05
    endloop
  endfacet
  facet normal 0 0 1
    outer loop
      vertex 30 20 1.05
      vertex 20 20 1.05
      vertex 30 0 1.05
    endloop
  endfacet
  facet normal -1 0 0
    outer loop
      vertex 30 20 1.4
      vertex 30 20 1.05
      vertex 30 0 1.4
    endloop
  endfacet
  facet normal -1 0 0
    outer loop
      vertex 30 0 1.4
      vertex 30 20 1.05
      vertex 30 0 1.05
    endloop
  endfacet
  facet normal 0 0 1
    outer loop
      vertex 30 20 1.4
      vertex 30 0 1.4
      vertex 40 0 1.4
    endloop
  endfacet
  facet normal 0 0 1
    outer loop
      vertex 40 20 1.4
      vertex 30 20 1.4
      vertex 40 0 1.4
    endloop
  endfacet
  facet normal -1 0 0
    outer loop
      vertex 40 20 1.75
      vertex 40 20 1.4
      vertex 40 0 1.75
    endloop
  endfacet
  facet normal -1 0 0
    outer loop
      vertex 40 0 1.75
      vertex 40 20 1.4
      vertex 40 0 1.4
    endloop
  endfacet
  facet normal 0 0 1
    outer loop
      vertex 40 20 1.75
      vertex 40 0 1.75
      vertex 50 0 1.75
    endloop
  endfacet
  facet normal 0 0 1
    outer loop
      vertex 50 20 1.75
      vertex 40 20 1.75
      vertex 50 0 1.75
    endloop
  endfacet
  facet normal -1 0 0
    outer loop
      vertex 50 20 2.1
      vertex 50 20 1.75
      vertex 50 0 2.1
    endloop
  endfacet
  facet normal -1 0 0
    outer loop
      vertex 50 0 2.1
      vertex 50 20 1.75
      vertex 50 0 1.75
    endloop
  endfacet
  facet normal 0 0 1
    outer loop
      vertex 50 20 2.1
      vertex 50 0 2.1
      vertex 60 0 2.1
    endloop
  endfacet
  facet normal 0 0 1
    outer loop
      vertex 60 20 2.1
      vertex 50 20 2.1
      vertex 60 0 2.1
    endloop
  endfacet
  facet normal -1 0 0
    outer loop
      vertex 60 20 2.45
      vertex 60 20 2.1
      vertex 60 0 2.45
    endloop
  endfacet
  facet normal -1 0 0
    outer loop
      vertex 60 0 2.45
      vertex 60 20 2.1
      vertex 60 0 2.1
    endloop
  endfacet
  facet normal 0 0 1
    outer loop
      vertex 60 20 2.45
      vertex 60 0 2.45
      vertex 70 0 2.45
    endloop
  endfacet
  facet normal 0 0 1
    outer loop
      vertex 70 20 2.45
      vertex 60 20 2.45
      vertex 70 0 2.45
    endloop
  endfacet
  facet normal -1 0 0
    outer loop
      vertex 70 20 2.8
      vertex 70 20 2.45
      vertex 70 0 2.8
    endloop
  endfacet
  facet normal -1 0 0
    outer loop
      vertex 70 0 2.8
      vertex 70 20 2.45
      vertex 70 0 2.45
    endloop
  endfacet
  facet normal 0 0 1
    outer loop
      vertex 70 20 2.8
      vertex 70 0 2.8
      vertex 80 0 2.8
    endloop
  endfacet
  facet normal 0 0 1
    outer loop
      vertex 80 20 2.8
      vertex 70 20 2.8
      vertex 80 0 2.8
    endloop
  endfacet
  facet normal -1 0 0
    outer loop
      vertex 80 20 3.15
      vertex 80 20 2.8
      vertex 80 0 3.15
    endloop
  endfacet
  facet normal -1 0 0
    outer loop
      vertex 80 0 3.15
      vertex 80 20 2.8
      vertex 80 0 2.8
    endloop
  endfacet
  facet normal 0 0 1
    outer loop
      vertex 80 20 3.15
      vertex 80 0 3.15
      vertex 90 0 3.15
    endloop
  endfacet
  facet normal 0 0 1
    outer loop
      vertex 90 20 3.15
      vertex 80 20 3.15
      vertex 90 0 3.15
    endloop
  endfacet
  facet normal -1 0 0
    outer loop
      vertex 90 20 3.5
      vertex 90 20 3.15
      vertex 90 0 3.5
    endloop
  endfacet
  facet normal -1 0 0
    outer loop
      vertex 90 0 3.5
      vertex 90 20 3.15
      vertex 90 0 3.15
    endloop
  endfacet
  facet normal 0 0 1
    outer loop
      vertex 90 20 3.5
      vertex 90 0 3.5
      vertex 100 0 3.5
    endloop
  endfacet
  facet normal 0 0 1
    outer loop
      vertex 100 20 3.5
      vertex 90 20 3.5
      vertex 100 0 3.5
    endloop
  endfacet
  facet normal 1 0 0
    outer loop
      vertex 100 0 3.5
      vertex 100 0 0
      vertex 100 20 0
    endloop
  endfacet
  facet normal 1 0 0
    outer loop
      vertex 100 20 3.5
      vertex 100 0 3.5
      vertex 100 20 0
    endloop
  endfacet
endsolid OpenSCAD_Model
