solid OpenSCAD_Model
  facet normal -1 0 0
    outer loop
      vertex 0 0 0
      vertex 0 0 5
      vertex 0 100 0
    endloop
  endfacet
  facet normal -1 0 0
    outer loop
      vertex 0 100 0
      vertex 0 0 5
      vertex 0 100 5
    endloop
  endfacet
  facet normal 0 -1 0
    outer loop
      vertex 0 0 5
      vertex 0 0 0
      vertex 100 0 0
    endloop
  endfacet
  facet normal 0 -1 0
    outer loop
      vertex 100 0 5
      vertex 0 0 5
      vertex 100 0 0
    endloop
  endfacet
  facet normal 0 0 -1
    outer loop
      vertex 0 0 0
      vertex 0 100 0
      vertex 100 0 0
    endloop
  endfacet
  facet normal 0 0 -1
    outer loop
      vertex 100 0 0
      vertex 0 100 0
      vertex 100 100 0
    endloop
  endfacet
  facet normal 0 1 0
    outer loop
      vertex 0 100 0
      vertex 0 100 5
      vertex 100 100 0
    endloop
  endfacet
  facet normal 0 1 0
    outer loop
      vertex 100 100 0
      vertex 0 100 5
      vertex 100 100 5
    endloop
  endfacet
  facet normal 0 0 1
    outer loop
      vertex 1 1 5
      vertex 0 0 5
      vertex 100 0 5
    endloop
  endfacet
  facet normal 0 0 1
    outer loop
      vertex 1 99 5
      vertex 0 100 5
      vertex 1 1 5
    endloop
  endfacet
  facet normal 0 0 1
    outer loop
      vertex 99 1 5
      vertex 1 1 5
      vertex 100 0 5
    endloop
  endfacet
  facet normal 0 0 1
    outer loop
      vertex 0 100 5
      vertex 0 0 5
      vertex 1 1 5
    endloop
  endfacet
  facet normal 0 0 1
    outer loop
      vertex 100 100 5
      vertex 0 100 5
      vertex 1 99 5
    endloop
  endfacet
  facet normal 0 0 1
    outer loop
      vertex 100 100 5
      vertex 99 99 5
      vertex 100 0 5
    endloop
  endfacet
  facet normal 0 0 1
    outer loop
      vertex 100 100 5
      vertex 1 99 5
      vertex 99 99 5
    endloop
  endfacet
  facet normal 0 0 1
    outer loop
      vertex 99 99 5
      vertex 99 1 5
      vertex 100 0 5
    endloop
  endfacet
  facet normal 1 0 0
    outer loop
      vertex 100 0 5
      vertex 100 0 0
      vertex 100 100 0
    endloop
  endfacet
  facet normal 1 0 0
    outer loop
      vertex 100 100 5
      vertex 100 0 5
      vertex 100 100 0
    endloop
  endfacet
  facet normal 1 0 0
    outer loop
      vertex 1 99 1.4
      vertex 1 99 5
      vertex 1 1 5
    endloop
  endfacet
  facet normal 1 0 0
    outer loop
      vertex 1 1 1.4
      vertex 1 99 1.4
      vertex 1 1 5
    endloop
  endfacet
  facet normal 0 1 0
    outer loop
      vertex 99 1 5
      vertex 99 1 1.4
      vertex 1 1 5
    endloop
  endfacet
  facet normal 0 1 0
    outer loop
      vertex 1 1 5
      vertex 99 1 1.4
      vertex 1 1 1.4
    endloop
  endfacet
  facet normal -1 0 0
    outer loop
      vertex 99 99 5
      vertex 99 99 1.4
      vertex 99 1 5
    endloop
  endfacet
  facet normal -1 0 0
    outer loop
      vertex 99 1 5
      vertex 99 99 1.4
      vertex 99 1 1.4
    endloop
  endfacet
  facet normal 0 -1 0
    outer loop
      vertex 99 99 1.4
      vertex 99 99 5
      vertex 1 99 5
    endloop
  endfacet
  facet normal 0 -1 0
    outer loop
      vertex 1 99 1.4
      vertex 99 99 1.4
      vertex 1 99 5
    endloop
  endfacet
  facet normal 0 0 1
    outer loop
      vertex 99 1 1.4
      vertex 99 99 1.4
      vertex 1 99 1.4
    endloop
  endfacet
  facet normal 0 0 1
    outer loop
      vertex 1 1 1.4
      vertex 99 1 1.4
      vertex 1 99 1.4
    endloop
  endfacet
endsolid OpenSCAD_Model
