solid OpenSCAD_Model
  facet normal -1 0 0
    outer loop
      vertex 0 0 1.5
      vertex 0 128 1.5
      vertex 0 0 0
    endloop
  endfacet
  facet normal -1 0 0
    outer loop
      vertex 0 0 0
      vertex 0 128 1.5
      vertex 0 128 0
    endloop
  endfacet
  facet normal 0 0 1
    outer loop
      vertex 0 0 1.5
      vertex 119 0 1.5
      vertex 119 128 1.5
    endloop
  endfacet
  facet normal 0 0 1
    outer loop
      vertex 0 128 1.5
      vertex 0 0 1.5
      vertex 119 128 1.5
    endloop
  endfacet
  facet normal 0 -1 0
    outer loop
      vertex 0 0 0
      vertex 119 0 0
      vertex 119 0 1.5
    endloop
  endfacet
  facet normal 0 -1 0
    outer loop
      vertex 0 0 1.5
      vertex 0 0 0
      vertex 119 0 1.5
    endloop
  endfacet
  facet normal 0 0 -1
    outer loop
      vertex 0 128 0
      vertex 119 128 0
      vertex 0 0 0
    endloop
  endfacet
  facet normal 0 0 -1
    outer loop
      vertex 0 0 0
      vertex 119 128 0
      vertex 119 0 0
    endloop
  endfacet
  facet normal 0 1 0
    outer loop
      vertex 0 128 1.5
      vertex 119 128 1.5
      vertex 0 128 0
    endloop
  endfacet
  facet normal 0 1 0
    outer loop
      vertex 0 128 0
      vertex 119 128 1.5
      vertex 119 128 0
    endloop
  endfacet
  facet normal 1 0 0
    outer loop
      vertex 119 0 0
      vertex 119 128 0
      vertex 119 128 1.5
    endloop
  endfacet
  facet normal 1 0 0
    outer loop
      vertex 119 0 1.5
      vertex 119 0 0
      vertex 119 128 1.5
    endloop
  endfacet
endsolid OpenSCAD_Model
